<svg width="52" height="92" viewBox="0 0 52 92" fill="none" xmlns="http://www.w3.org/2000/svg">
<path d="M17.68 1.24017L17.68 7.48017L9.36004 7.48017C4.76532 7.48017 1.04004 11.2054 1.04004 15.8002L1.04004 82.3602C1.04004 86.9549 4.76532 90.6802 9.36004 90.6802L42.64 90.6802C47.2348 90.6802 50.96 86.9549 50.96 82.3602L50.96 15.8002C50.96 11.2054 47.2348 7.48017 42.64 7.48017L34.32 7.48017L34.32 1.24017L17.68 1.24017Z" stroke="#999999" stroke-width="2" stroke-miterlimit="10" stroke-linecap="round" stroke-linejoin="round"/>
<path d="M27.1698 70.2937C27.3732 70.7412 27.8717 70.9745 28.3456 70.844C28.8195 70.7135 29.1283 70.258 29.0741 69.7695L27.1174 52.1599L34.3202 52.1599C34.6602 52.1599 34.9769 51.9871 35.161 51.7013C35.345 51.4154 35.3712 51.0556 35.2305 50.7461L24.8305 27.8661C24.6271 27.4186 24.1287 27.1853 23.6548 27.3158C23.1808 27.4462 22.872 27.9018 22.9263 28.3903L24.8829 45.9999L17.6802 45.9999C17.3402 45.9999 17.0235 46.1726 16.8394 46.4585C16.6553 46.7444 16.6291 47.1042 16.7698 47.4137L27.1698 70.2937Z" stroke="#009EFF" stroke-width="2" stroke-linejoin="round"/>
<path d="M6 17V47" stroke="#009EFF" stroke-width="2" stroke-linecap="round"/>
<path d="M6 53V64" stroke="#009EFF" stroke-width="2" stroke-linecap="round"/>
</svg>
