<svg width="98" height="86" viewBox="0 0 98 86" fill="none" xmlns="http://www.w3.org/2000/svg">
<g clip-path="url(#clip0_0_1)">
<path d="M41.2476 40.9984H42.748C42.748 37.2754 45.7769 34.2465 49.4999 34.2465V32.7461C44.9498 32.7461 41.2476 36.4483 41.2476 40.9984Z" fill="#CCCCCC"/>
<path d="M62.5041 53.7527H61.7539V40.9983C61.7539 34.2424 56.2566 28.7451 49.4999 28.7451C42.7432 28.7451 37.2459 34.2424 37.2459 40.9983V53.7519H36.4957C34.9792 53.7519 33.7446 54.9857 33.7446 56.503V62.2549H65.2543V56.503C65.2543 54.9865 64.0205 53.7527 62.5041 53.7527ZM38.7463 40.9983C38.7463 35.0687 43.5702 30.2455 49.4999 30.2455C55.4295 30.2455 60.2535 35.0695 60.2535 40.9983V53.7519H38.7463V40.9983ZM63.7539 57.254H56.2014V58.7544H63.7539V60.7552H35.2459V58.7544H43.298V57.254H35.2459V56.5038C35.2459 55.8144 35.8063 55.2532 36.4965 55.2532H62.5041C63.1935 55.2532 63.7547 55.8136 63.7547 56.5038V57.254H63.7539Z" fill="#CCCCCC"/>
<path d="M69.3929 33.1816L68.332 34.2425C73.8894 39.8006 73.8894 48.8432 68.332 54.4014L69.3929 55.4622C75.5355 49.3188 75.5355 39.3243 69.3929 33.1816Z" fill="#CCCCCC"/>
<path d="M66.4456 36.1279L65.3848 37.1888C69.3176 41.1216 69.3176 47.5204 65.3848 51.4532L66.4456 52.5141C70.9629 47.9968 70.9629 40.646 66.4456 36.1279Z" fill="#CCCCCC"/>
<path d="M30.6678 34.2423L29.607 33.1807C23.4643 39.3233 23.4643 49.3186 29.607 55.4613L30.6678 54.4004C25.1105 48.843 25.1105 39.7997 30.6678 34.2423Z" fill="#CCCCCC"/>
<path d="M33.6148 37.1896L32.554 36.1279C28.0367 40.6452 28.0367 47.9968 32.554 52.5141L33.6148 51.4532C29.682 47.5212 29.682 41.1216 33.6148 37.1896Z" fill="#CCCCCC"/>
<path d="M51.7505 51.5731V48.0198C52.6609 47.3345 53.251 46.2456 53.251 45.0206C53.251 42.9525 51.568 41.2695 49.4999 41.2695C47.4318 41.2695 45.7488 42.9525 45.7488 45.0206C45.7488 46.2448 46.3389 47.3345 47.2493 48.0198V51.5731H45.499V53.0736H53.5016V51.5731H51.7505ZM50.2501 51.5731H48.7497V48.6972C48.9923 48.7468 49.2429 48.7725 49.4999 48.7725C49.7569 48.7725 50.0075 48.746 50.2501 48.6972V51.5731ZM49.4999 47.272C48.2589 47.272 47.2493 46.2624 47.2493 45.0214C47.2493 43.7804 48.2589 42.7708 49.4999 42.7708C50.7409 42.7708 51.7505 43.7804 51.7505 45.0214C51.7505 46.2624 50.7409 47.272 49.4999 47.272Z" fill="#CCCCCC"/>
<path d="M46.9994 57.2539H45.499V58.7543H46.9994V57.2539Z" fill="#CCCCCC"/>
<path d="M54.0014 57.2539H52.501V58.7543H54.0014V57.2539Z" fill="#CCCCCC"/>
<path d="M50.5009 57.2539H49.0005V58.7543H50.5009V57.2539Z" fill="#CCCCCC"/>
</g>
<path d="M72.9227 1.56475L96.8453 43L72.9226 84.4353L25.0774 84.4353L1.15471 43L25.0774 1.56475L72.9227 1.56475Z" stroke="#CCCCCC" stroke-width="2"/>
<defs>
<clipPath id="clip0_0_1">
<rect width="49" height="33.5098" fill="white" transform="translate(25 28.7451)"/>
</clipPath>
</defs>
</svg>



