<svg width="30" height="14" viewBox="0 0 30 14" fill="none" xmlns="http://www.w3.org/2000/svg">
<path d="M5.93295 2.53993C6.26813 2.12095 6.4954 1.55826 6.43548 0.983398C5.94512 1.00775 5.34686 1.30688 5.00022 1.72633C4.68916 2.08538 4.4139 2.67147 4.48552 3.22222C5.03603 3.26997 5.58607 2.9472 5.93295 2.53993Z" fill="black"/>
<path d="M6.42977 3.33035C5.63002 3.28261 4.95059 3.78394 4.56886 3.78394C4.18689 3.78394 3.60224 3.35423 2.96984 3.36593C2.14693 3.37786 1.38347 3.84339 0.965685 4.58346C0.106729 6.06359 0.738891 8.25992 1.57445 9.46551C1.98006 10.0623 2.46898 10.7189 3.11307 10.6952C3.72184 10.6713 3.96033 10.3013 4.69992 10.3013C5.43927 10.3013 5.65413 10.6952 6.29847 10.6833C6.96644 10.6713 7.38422 10.0865 7.78982 9.48963C8.25535 8.80924 8.44562 8.15273 8.45756 8.11692C8.44562 8.10498 7.16936 7.61535 7.15742 6.14715C7.14549 4.91768 8.15962 4.33279 8.20737 4.29674C7.63465 3.44972 6.73988 3.35423 6.42953 3.33035" fill="black"/>
<path d="M14.4003 1.66602C16.1378 1.66602 17.3479 2.86373 17.3479 4.60743C17.3479 6.35733 16.113 7.56125 14.3569 7.56125H12.4332V10.6208H11.0433V1.66602H14.4003ZM12.4332 6.39457H14.0279C15.2383 6.39457 15.9268 5.74307 15.9268 4.61363C15.9268 3.48443 15.238 2.8389 14.0341 2.8389H12.4332V6.39457Z" fill="black"/>
<path d="M17.6921 8.76531C17.6921 7.61726 18.567 6.95955 20.1804 6.86024L21.9117 6.75472V6.25816C21.9117 5.53241 21.434 5.13516 20.5838 5.13516C19.8824 5.13516 19.3735 5.49493 19.2684 6.04712H18.0146C18.0521 4.88688 19.144 4.04297 20.6211 4.04297C22.2096 4.04297 23.2459 4.87447 23.2459 6.16529V10.6207H21.9616V9.54716H21.9305C21.5643 10.2483 20.7574 10.6888 19.8824 10.6888C18.5919 10.6888 17.6921 9.91958 17.6921 8.76531V8.76531ZM21.9117 8.1883V7.68553L20.3666 7.78485C19.4976 7.84071 19.045 8.16323 19.045 8.72783C19.045 9.27405 19.5165 9.62785 20.2549 9.62785C21.1978 9.62785 21.9117 9.02577 21.9117 8.1883V8.1883Z" fill="black"/>
<path d="M24.427 13.0153V11.942C24.5139 11.9542 24.7247 11.9666 24.8364 11.9666C25.4506 11.9666 25.7982 11.7064 26.0093 11.0358L26.1334 10.6387L23.7814 4.12305H25.2334L26.8718 9.40999H26.9028L28.541 4.12305H29.956L27.5171 10.9675C26.9585 12.5376 26.3194 13.0528 24.9667 13.0528C24.8612 13.0528 24.5198 13.0404 24.427 13.0153V13.0153Z" fill="black"/>
</svg>
