<svg width="14" height="10" viewBox="0 0 14 10" fill="none" xmlns="http://www.w3.org/2000/svg">
<path d="M2.55211 5.06044V7.54575C2.55211 7.74726 2.41776 7.74726 2.21625 7.68009C0.940017 7.14272 0.201143 5.46347 0.671336 4.05289C0.940017 3.31402 1.47738 2.70948 2.21625 2.4408C2.48493 2.30646 2.55211 2.37363 2.55211 2.57514V5.06044ZM3.89551 5.06044V2.57514C3.89551 2.37363 3.89551 2.37363 4.09702 2.4408C5.5076 2.97816 6.24647 4.65742 5.70911 6.068C5.44043 6.80687 4.90307 7.41141 4.16419 7.68009C3.89551 7.81443 3.89551 7.74726 3.89551 7.54575V5.06044ZM8.73178 0.358521H3.22381C5.77628 0.358521 7.79139 2.4408 7.79139 5.06044C7.79139 7.68009 5.77628 9.76237 3.22381 9.76237H8.73178C11.2842 9.76237 13.2994 7.68009 13.2994 5.06044C13.2994 2.4408 11.2842 0.358521 8.73178 0.358521Z" fill="#3086C8"/>
</svg>
