<svg width="12" height="12" viewBox="0 0 12 12" fill="none" xmlns="http://www.w3.org/2000/svg">
<path d="M6.44107 11.5684C9.48304 11.5684 11.949 9.10242 11.949 6.06046C11.949 3.01849 9.48304 0.55249 6.44107 0.55249C3.39911 0.55249 0.933105 3.01849 0.933105 6.06046C0.933105 9.10242 3.39911 11.5684 6.44107 11.5684Z" fill="#1652F0"/>
<path d="M7.77085 6.76842C7.77085 6.07321 7.34835 5.83879 6.53022 5.72594C5.92568 5.63862 5.80814 5.49756 5.80814 5.21545C5.80814 4.93333 6.01301 4.75735 6.40461 4.75735C6.76061 4.75735 6.96683 4.88094 7.05146 5.16843C7.0604 5.1998 7.07922 5.22745 7.10511 5.24729C7.131 5.26713 7.16259 5.27811 7.1952 5.27859H7.50822C7.52866 5.27886 7.5489 5.27465 7.56754 5.26625C7.58617 5.25784 7.60273 5.24546 7.61606 5.22995C7.62938 5.21445 7.63914 5.19622 7.64465 5.17653C7.65015 5.15685 7.65128 5.1362 7.64793 5.11603C7.54852 4.66263 7.24289 4.38925 6.7633 4.30395V3.82569C6.7633 3.78626 6.74768 3.74843 6.71986 3.72049C6.69204 3.69254 6.65429 3.67675 6.61485 3.67657H6.31594C6.2764 3.67657 6.23847 3.69229 6.2105 3.72025C6.18254 3.74822 6.16683 3.78614 6.16683 3.82569V4.28715C5.5717 4.37112 5.19487 4.76406 5.19487 5.26918C5.19487 5.92073 5.59252 6.17464 6.42274 6.28681C6.98698 6.37951 7.14818 6.50176 7.14818 6.82216C7.14818 7.14323 6.87547 7.35818 6.48992 7.35818C5.97069 7.35818 5.7947 7.13114 5.73626 6.83627C5.72947 6.80235 5.7112 6.77182 5.68453 6.74979C5.65786 6.72777 5.62442 6.71561 5.58983 6.71536H5.25062C5.23036 6.71508 5.21028 6.71926 5.19181 6.72759C5.17334 6.73593 5.15692 6.74822 5.14373 6.7636C5.13053 6.77897 5.12087 6.79706 5.11543 6.81658C5.10999 6.8361 5.1089 6.85658 5.11225 6.87657C5.19957 7.37363 5.51796 7.73635 6.16683 7.82367V8.29521C6.16683 8.33475 6.18254 8.37268 6.2105 8.40065C6.23847 8.42861 6.2764 8.44432 6.31594 8.44432H6.61485C6.65429 8.44415 6.69204 8.42836 6.71986 8.40041C6.74768 8.37247 6.7633 8.33464 6.7633 8.29521V7.82501C7.37925 7.72694 7.77085 7.30176 7.77085 6.76842Z" fill="white"/>
<path d="M5.31272 9.14829C4.67998 8.91661 4.13368 8.49616 3.74773 7.94383C3.36178 7.3915 3.1548 6.73395 3.1548 6.06013C3.1548 5.38631 3.36178 4.72876 3.74773 4.17643C4.13368 3.6241 4.67998 3.20365 5.31272 2.97197C5.35327 2.95412 5.38803 2.92529 5.41307 2.88874C5.43812 2.85218 5.45245 2.80935 5.45445 2.76509V2.45745C5.45716 2.43028 5.45266 2.40287 5.44139 2.378C5.43012 2.35313 5.41249 2.33167 5.39028 2.31579C5.36806 2.29992 5.34205 2.29018 5.31487 2.28757C5.28769 2.28497 5.2603 2.28958 5.23547 2.30094C4.43804 2.55516 3.74211 3.05637 3.24827 3.73212C2.75444 4.40787 2.48828 5.22316 2.48828 6.06013C2.48828 6.8971 2.75444 7.71239 3.24827 8.38814C3.74211 9.06389 4.43804 9.5651 5.23547 9.81932C5.2603 9.83068 5.28769 9.83529 5.31487 9.83269C5.34205 9.83008 5.36806 9.82034 5.39028 9.80447C5.41249 9.78859 5.43012 9.76713 5.44139 9.74226C5.45266 9.71739 5.45716 9.68998 5.45445 9.66281V9.35651C5.45263 9.31221 5.43846 9.26929 5.41353 9.23261C5.3886 9.19593 5.35392 9.16696 5.31339 9.14896L5.31272 9.14829ZM7.64622 2.30161C7.62138 2.29047 7.59405 2.28602 7.56696 2.28872C7.53986 2.29143 7.51395 2.30118 7.4918 2.31701C7.46965 2.33284 7.45203 2.3542 7.44071 2.37896C7.42938 2.40372 7.42474 2.43101 7.42724 2.45812V2.76509C7.42909 2.8094 7.44336 2.85229 7.46842 2.88887C7.49348 2.92545 7.52832 2.95425 7.56897 2.97197C8.20193 3.20352 8.74846 3.62396 9.1346 4.17636C9.52073 4.72877 9.72781 5.38648 9.72781 6.06047C9.72781 6.73445 9.52073 7.39216 9.1346 7.94457C8.74846 8.49698 8.20193 8.91741 7.56897 9.14896C7.52702 9.16492 7.49099 9.1934 7.46576 9.23052C7.44053 9.26765 7.42732 9.31163 7.42791 9.35651V9.66348C7.42541 9.69059 7.43005 9.71789 7.44138 9.74265C7.45271 9.7674 7.47032 9.78876 7.49247 9.80459C7.51462 9.82043 7.54054 9.83018 7.56763 9.83288C7.59472 9.83558 7.62205 9.83114 7.64689 9.81999C8.44432 9.56578 9.14025 9.06457 9.63409 8.38881C10.1279 7.71306 10.3941 6.89777 10.3941 6.0608C10.3941 5.22383 10.1279 4.40855 9.63409 3.73279C9.14025 3.05704 8.44432 2.55583 7.64689 2.30161H7.64622Z" fill="white"/>
</svg>
