<svg width="7" height="8" viewBox="0 0 7 8" fill="none" xmlns="http://www.w3.org/2000/svg">
<path d="M1.61132 1.57513L1.81283 0.903422C2.21586 1.03776 2.68605 1.1721 3.08907 1.37361C3.22341 1.03776 3.35775 0.701911 3.42492 0.298889L4.02946 0.5004L3.6936 1.50795L4.23097 1.70947L4.56682 0.701911L5.17135 0.903422C5.03701 1.23927 4.90267 1.57513 4.8355 1.97815L5.10418 2.11249C5.30569 2.24683 5.5072 2.38117 5.70871 2.58268C5.91022 2.78419 5.9774 2.9857 6.04457 3.25438C6.04457 3.45589 6.04456 3.65741 5.91022 3.85892C5.77588 4.19477 5.57437 4.39628 5.17135 4.46345H5.03701C5.17135 4.53062 5.23852 4.59779 5.30569 4.73213C5.57437 5.00081 5.64154 5.26949 5.57437 5.67251C5.57437 5.73969 5.57437 5.80686 5.5072 5.87403C5.5072 5.9412 5.5072 5.9412 5.44003 6.00837C5.37286 6.14271 5.30569 6.20988 5.30569 6.34422C5.10418 6.68007 4.76833 6.94875 4.29814 6.94875C3.96229 6.94875 3.62643 6.94875 3.35775 6.88158L3.08907 6.81441C2.95473 7.15026 2.82039 7.48611 2.75322 7.88914L2.14869 7.68763C2.28303 7.35177 2.41737 7.01592 2.48454 6.68007L1.94718 6.47856C1.81283 6.81441 1.67849 7.15026 1.61132 7.48611L1.00679 7.2846C1.14113 6.94875 1.27547 6.6129 1.34264 6.20988L0.0664062 5.80686L0.469428 5.06798C0.603768 5.13515 0.80528 5.20232 0.939621 5.20232C1.07396 5.26949 1.2083 5.20232 1.27547 5.06798L2.21586 2.24683V2.17966C2.21586 1.97815 2.14869 1.84381 1.94718 1.84381C1.94718 1.70947 1.81283 1.6423 1.61132 1.57513ZM2.41737 5.60535C2.75322 5.73969 3.0219 5.80686 3.29058 5.87403C3.49209 5.9412 3.62643 5.9412 3.82794 5.9412C3.96228 5.9412 4.02945 5.9412 4.1638 5.87403C4.49965 5.67251 4.56682 5.20232 4.29814 4.93364L3.89511 4.59779C3.6936 4.46345 3.42492 4.39628 3.15624 4.32911C3.08907 4.32911 2.95473 4.26194 2.88756 4.19477L2.41737 5.60535ZM3.08907 3.52306C3.29058 3.59023 3.42492 3.65741 3.55926 3.65741C3.76077 3.72458 3.96228 3.79175 4.1638 3.72458C4.43248 3.72458 4.63399 3.65741 4.70116 3.38872C4.76833 3.18721 4.76833 2.9857 4.70116 2.85136C4.63399 2.71702 4.49965 2.64985 4.36531 2.58268C4.1638 2.44834 3.96229 2.38117 3.6936 2.314L3.49209 2.24683C3.42492 2.71702 3.22341 3.12004 3.08907 3.52306Z" fill="white"/>
</svg>
