<svg width="8" height="10" viewBox="0 0 8 10" fill="none" xmlns="http://www.w3.org/2000/svg">
<path d="M6.83394 2.57514C6.96828 1.90344 6.83394 1.43325 6.43092 1.03022C6.0279 0.560032 5.28903 0.358521 4.34864 0.358521H1.59466C1.39315 0.358521 1.25881 0.492861 1.19164 0.694372L0.184082 7.47858C0.184082 7.61292 0.251252 7.74726 0.385593 7.74726H2.19919L2.46787 5.46347L3.67694 3.98572L6.83394 2.57514Z" fill="#003087"/>
<path d="M6.8341 2.57513L6.69976 2.70947C6.3639 4.59024 5.22201 5.26195 3.60992 5.26195H2.87105C2.66954 5.26195 2.5352 5.39629 2.46803 5.5978L2.065 8.21744L1.93066 8.88914C1.93066 9.02349 1.99783 9.15783 2.13217 9.15783H3.54275C3.74426 9.15783 3.8786 9.02349 3.8786 8.88914V8.82197L4.14728 7.20989V7.14272C4.14728 7.00838 4.34879 6.87403 4.48314 6.87403H4.68465C6.09522 6.87403 7.16995 6.33667 7.43863 4.72458C7.57297 4.05288 7.5058 3.51552 7.16995 3.1125C7.10278 2.77665 6.96844 2.6423 6.8341 2.57513Z" fill="#3086C8"/>
<path d="M6.43082 2.44083C6.36365 2.37366 6.29648 2.37366 6.22931 2.37366C6.16214 2.37366 6.09497 2.37366 6.0278 2.30649C5.82629 2.23932 5.55761 2.23932 5.28893 2.23932H3.27382C3.20665 2.23932 3.13948 2.23932 3.13948 2.30649C3.00514 2.37366 2.93797 2.44083 2.93797 2.57517L2.46777 5.53066V5.59784C2.46777 5.39632 2.66928 5.26198 2.8708 5.26198H3.74401C5.42327 5.26198 6.49799 4.59028 6.83385 2.70951V2.57517C6.76668 2.508 6.63233 2.44083 6.49799 2.44083H6.43082Z" fill="#012169"/>
</svg>
