<svg width="21" height="6" viewBox="0 0 21 6" fill="none" xmlns="http://www.w3.org/2000/svg">
<path d="M4.02605 1.89702L4.54595 3.15713H3.51018L4.02605 1.89702ZM14.8237 1.94941H12.824V2.50491H14.7914V3.33715H12.828V3.95646H14.8277V4.45285L16.2228 2.94488L14.8277 1.37309L14.8237 1.94941ZM5.37752 0.377626H8.06097L8.65677 1.67737L9.20891 0.373596H16.1745L16.8986 1.17292L17.6475 0.373596H20.8468L18.4831 2.961L20.8227 5.53228H17.5756L16.8516 4.73295L16.0959 5.53228H4.73738L4.40556 4.73295H3.64654L3.31404 5.53228H0.687012L2.89423 0.373596H5.19817L5.37752 0.377626ZM11.1965 1.10172H9.69254L8.68498 3.47687L7.59346 1.10172H6.10094V4.33262L4.71723 1.10172H3.37853L1.77853 4.80415H2.82303L3.15485 4.00482H4.89859L5.23041 4.80415H7.05745V2.161L8.2336 4.80818H9.03292L10.2017 2.16906V4.80885H11.181L11.1972 1.10105L11.1965 1.10172ZM17.4702 2.961L19.1703 1.10172H17.9464L16.871 2.26108L15.8312 1.10172H11.8722V4.80818H15.7748L16.8589 3.64076L17.8987 4.80818H19.1582L17.4709 2.961H17.4702Z" fill="white"/>
</svg>
