<svg width="7" height="6" viewBox="0 0 7 6" fill="none" xmlns="http://www.w3.org/2000/svg">
<path d="M6.01592 2.39141C5.81777 1.21392 4.87403 0.612743 4.39644 0.458251C3.91886 0.305774 0.760515 0.368915 0.760515 0.368915C0.689314 0.456236 0.732975 1.64381 0.732975 1.64381L1.45237 1.63978L1.46648 2.55195H0.84582C0.836445 2.55186 0.827146 2.55364 0.818467 2.55719C0.809788 2.56073 0.801904 2.56598 0.795274 2.57261C0.788645 2.57923 0.783404 2.58712 0.779858 2.5958C0.776311 2.60448 0.774531 2.61378 0.77462 2.62315V3.52323C0.77462 3.56286 0.80619 3.59443 0.84582 3.59443H1.47655C1.47857 4.08007 1.47252 4.46899 1.45304 4.47638C1.3993 4.49788 0.814922 4.44683 0.757155 4.48646C0.701404 4.52407 0.731632 5.22801 0.731632 5.49737C0.729617 5.76672 0.802832 5.7553 0.802832 5.7553C4.15127 5.67 4.07 5.97764 5.01374 5.41206C5.95748 4.84716 6.21743 3.57025 6.01659 2.39074L6.01592 2.39141ZM2.45052 4.47302V3.58301L3.52592 3.59443C3.54504 3.59461 3.56347 3.58723 3.57718 3.5739C3.59089 3.56057 3.59878 3.54236 3.59913 3.52323V2.62315C3.59878 2.60403 3.59089 2.58582 3.57718 2.57248C3.56347 2.55915 3.54504 2.55177 3.52592 2.55195L2.45052 2.55396V1.56052C2.45052 1.56052 4.91298 1.28781 4.91298 3.13432C4.91298 4.90896 2.45052 4.47302 2.45052 4.47302Z" fill="white"/>
</svg>
