<svg width="19" height="6" viewBox="0 0 19 6" fill="none" xmlns="http://www.w3.org/2000/svg">
<path d="M16.4842 1.78417H16.2827C16.014 2.45588 15.8125 2.79173 15.611 3.79928H16.8872C16.6857 2.79173 16.6857 2.32154 16.4842 1.78417ZM18.4321 5.74722H17.2902C17.2231 5.74722 17.2231 5.74722 17.1559 5.68005L17.0215 5.07552L16.9544 4.94118H15.3423C15.2751 4.94118 15.2079 4.94118 15.2079 5.07552L15.0064 5.68005C15.0064 5.74722 14.9393 5.74722 14.9393 5.74722H13.5287L13.663 5.41137L15.611 0.843788C15.611 0.507937 15.8125 0.373596 16.1483 0.373596H17.1559C17.2231 0.373596 17.2902 0.373596 17.2902 0.507937L18.2306 4.87401C18.2978 5.14269 18.365 5.3442 18.365 5.61288C18.4321 5.68005 18.4321 5.68005 18.4321 5.74722ZM9.4313 5.54571L9.69998 4.33665C9.76715 4.33665 9.83432 4.40382 9.83432 4.40382C10.3045 4.60533 10.7747 4.73967 11.2449 4.6725C11.3792 4.6725 11.5807 4.60533 11.7151 4.53816C12.0509 4.40382 12.0509 4.06796 11.7823 3.79928C11.6479 3.66494 11.4464 3.59777 11.2449 3.46343C10.9762 3.32909 10.7075 3.19475 10.506 2.99324C9.69998 2.32154 9.96866 1.38115 10.4389 0.910959C10.8419 0.642278 11.0434 0.373596 11.5807 0.373596C12.3868 0.373596 13.26 0.373596 13.663 0.507937H13.7302C13.663 0.910959 13.5959 1.24681 13.4615 1.64983C13.1257 1.51549 12.7898 1.38115 12.454 1.38115C12.2525 1.38115 12.0509 1.38115 11.8494 1.44832C11.7151 1.44832 11.6479 1.51549 11.5807 1.58266C11.4464 1.717 11.4464 1.91851 11.5807 2.05285L11.9166 2.32154C12.1853 2.45588 12.454 2.59022 12.6555 2.72456C12.9913 2.92607 13.3272 3.26192 13.3943 3.66494C13.5287 4.26947 13.3272 4.80684 12.7898 5.20986C12.454 5.47854 12.3196 5.61288 11.8494 5.61288C10.909 5.61288 10.1702 5.68005 9.56564 5.47854C9.49847 5.61288 9.49847 5.61288 9.4313 5.54571ZM7.08034 5.74722C7.14751 5.27703 7.14751 5.27703 7.21468 5.07552C7.55053 3.59777 7.88638 2.05285 8.15506 0.575107C8.22223 0.440767 8.22223 0.373596 8.35657 0.373596H9.56564C9.4313 1.17964 9.29696 1.78417 9.09545 2.52305C8.89394 3.5306 8.69242 4.53816 8.42374 5.54571C8.42374 5.68005 8.35657 5.68005 8.22223 5.68005L7.08034 5.74722ZM0.833496 0.507937C0.833496 0.440766 0.967837 0.373596 1.03501 0.373596H3.3188C3.65465 0.373596 3.92333 0.575107 3.9905 0.910959L4.59503 3.86645C4.59503 3.93362 4.59503 3.93362 4.6622 4.00079C4.6622 3.93362 4.72938 3.93362 4.72938 3.93362L6.13995 0.507937C6.07278 0.440766 6.13995 0.373596 6.20712 0.373596H7.6177C7.6177 0.440767 7.6177 0.440766 7.55053 0.507937L5.46825 5.41137C5.40108 5.54571 5.40108 5.61288 5.33391 5.68005C5.26674 5.74722 5.1324 5.68005 4.99806 5.68005H3.9905C3.92333 5.68005 3.85616 5.68005 3.85616 5.54571L2.78144 1.38115C2.64709 1.24681 2.44558 1.0453 2.1769 0.978129C1.77388 0.776618 1.03501 0.642277 0.900666 0.642277L0.833496 0.507937Z" fill="#142688"/>
</svg>
