<svg width="90" height="12" viewBox="0 0 90 12" fill="none" xmlns="http://www.w3.org/2000/svg">
<path d="M6.48331 3.26137C5.64331 3.26137 4.99967 3.51774 4.5524 4.03047C4.10513 4.54319 3.88149 5.26865 3.88149 6.20683C3.88149 7.15592 4.12694 7.88683 4.61785 8.39956C5.11967 8.91228 5.79058 9.16865 6.63058 9.16865C7.07785 9.16865 7.45422 9.10865 7.75967 8.98865C8.07604 8.86865 8.37604 8.73228 8.65967 8.57956C8.84513 8.73228 8.98695 8.91774 9.08513 9.13592C9.19422 9.34319 9.24876 9.58865 9.24876 9.87228C9.24876 10.3196 8.99785 10.7014 8.49604 11.0177C8.00513 11.3232 7.2524 11.4759 6.23785 11.4759C5.50695 11.4759 4.81967 11.3723 4.17604 11.165C3.5324 10.9577 2.97058 10.6414 2.49058 10.2159C2.01058 9.77956 1.62876 9.2341 1.34513 8.57956C1.0724 7.9141 0.936035 7.12319 0.936035 6.20683C0.936035 5.35592 1.06694 4.60865 1.32876 3.96501C1.60149 3.31046 1.96694 2.75956 2.42513 2.31228C2.89422 1.86501 3.43967 1.52683 4.06149 1.29774C4.68331 1.06865 5.34876 0.954102 6.05785 0.954102C7.06149 0.954102 7.83604 1.11774 8.38149 1.44501C8.93785 1.77228 9.21604 2.19228 9.21604 2.70501C9.21604 2.98865 9.14513 3.2341 9.00331 3.44137C8.86149 3.64865 8.69785 3.81228 8.5124 3.93228C8.22876 3.74683 7.92331 3.58865 7.59604 3.45774C7.27967 3.32683 6.90876 3.26137 6.48331 3.26137Z" fill="white"/>
<path d="M13.1259 1.55956C13.3114 1.45046 13.5896 1.34683 13.9605 1.24865C14.3423 1.15046 14.7241 1.10137 15.1059 1.10137C15.6514 1.10137 16.1314 1.18319 16.5459 1.34683C16.9714 1.49956 17.2441 1.74501 17.3641 2.08319C17.5605 2.65046 17.7732 3.31046 18.0023 4.06319C18.2314 4.81592 18.4605 5.59592 18.6896 6.40319C18.9186 7.19956 19.1423 7.99047 19.3605 8.77592C19.5786 9.55047 19.7696 10.2377 19.9332 10.8377C19.8023 10.9905 19.6059 11.1105 19.3441 11.1977C19.0823 11.2959 18.7714 11.345 18.4114 11.345C18.1496 11.345 17.9259 11.3232 17.7405 11.2796C17.5659 11.2359 17.4186 11.1705 17.2986 11.0832C17.1896 10.9959 17.0968 10.8814 17.0205 10.7396C16.955 10.5977 16.895 10.4341 16.8405 10.2486L16.5459 9.11956H13.5841C13.4968 9.44683 13.4096 9.78501 13.3223 10.1341C13.235 10.4832 13.1477 10.8214 13.0605 11.1486C12.9077 11.2032 12.7441 11.2468 12.5696 11.2796C12.4059 11.3232 12.2041 11.345 11.9641 11.345C11.4077 11.345 10.9932 11.2523 10.7205 11.0668C10.4586 10.8705 10.3277 10.6032 10.3277 10.265C10.3277 10.1123 10.3496 9.95956 10.3932 9.80683C10.4368 9.6541 10.4859 9.4741 10.5405 9.26683C10.6168 8.97228 10.7205 8.60683 10.8514 8.17047C10.9932 7.7341 11.1459 7.26501 11.3096 6.76319C11.4732 6.25047 11.6477 5.72683 11.8332 5.19228C12.0186 4.65774 12.1932 4.15592 12.3568 3.68683C12.5205 3.20683 12.6677 2.78137 12.7986 2.41047C12.9405 2.03956 13.0496 1.75592 13.1259 1.55956ZM15.0896 3.67047C14.9368 4.12865 14.7623 4.64137 14.5659 5.20865C14.3805 5.76501 14.2114 6.33228 14.0586 6.91047H16.0877C15.935 6.32137 15.7768 5.74865 15.6132 5.19228C15.4605 4.62501 15.3186 4.11774 15.1877 3.67047H15.0896Z" fill="white"/>
<path d="M22.7961 11.2305C22.327 11.2305 21.9561 11.0941 21.6833 10.8214C21.4106 10.5486 21.2742 10.1777 21.2742 9.70865V1.24865C21.3942 1.22683 21.5852 1.19956 21.847 1.16683C22.1088 1.12319 22.3597 1.10137 22.5997 1.10137C22.8506 1.10137 23.0688 1.12319 23.2542 1.16683C23.4506 1.19956 23.6142 1.26501 23.7452 1.36319C23.8761 1.46137 23.9742 1.59774 24.0397 1.77228C24.1052 1.94683 24.1379 2.17592 24.1379 2.45956V8.92319H27.8852C27.9615 9.04319 28.0324 9.20683 28.0979 9.4141C28.1633 9.61047 28.1961 9.81774 28.1961 10.0359C28.1961 10.4723 28.1033 10.7832 27.9179 10.9686C27.7324 11.1432 27.487 11.2305 27.1815 11.2305H22.7961Z" fill="white"/>
<path d="M32.5274 11.1159C32.4074 11.1486 32.2165 11.1814 31.9547 11.2141C31.7038 11.2468 31.4529 11.2632 31.202 11.2632C30.9511 11.2632 30.7274 11.2414 30.5311 11.1977C30.3456 11.165 30.1874 11.0996 30.0565 11.0014C29.9256 10.9032 29.8274 10.7668 29.762 10.5923C29.6965 10.4177 29.6638 10.1886 29.6638 9.90501V1.26501C29.7838 1.24319 29.9747 1.21592 30.2365 1.18319C30.4984 1.13956 30.7493 1.11774 30.9893 1.11774C31.2402 1.11774 31.4584 1.13956 31.6438 1.18319C31.8402 1.21592 32.0038 1.28137 32.1347 1.37956C32.2656 1.47774 32.3638 1.6141 32.4293 1.78865C32.4947 1.96319 32.5274 2.19228 32.5274 2.47592V11.1159Z" fill="white"/>
<path d="M41.6205 1.26501C41.6969 1.38501 41.7623 1.54865 41.8169 1.75592C41.8823 1.95228 41.9151 2.15956 41.9151 2.37774C41.9151 2.80319 41.8223 3.10865 41.6369 3.2941C41.4623 3.46865 41.2223 3.55592 40.9169 3.55592H37.4805V5.40501H41.0641C41.1514 5.52501 41.2223 5.68319 41.2769 5.87956C41.3423 6.07592 41.3751 6.28319 41.3751 6.50137C41.3751 6.91592 41.2823 7.21592 41.0969 7.40137C40.9223 7.57592 40.6823 7.66319 40.3769 7.66319H37.5132V11.1159C37.3932 11.1486 37.2023 11.1814 36.9405 11.2141C36.6896 11.2468 36.4387 11.2632 36.1878 11.2632C35.9369 11.2632 35.7132 11.2414 35.5169 11.1977C35.3314 11.165 35.1732 11.0996 35.0423 11.0014C34.9114 10.9032 34.8132 10.7668 34.7478 10.5923C34.6823 10.4177 34.6496 10.1886 34.6496 9.90501V2.78683C34.6496 2.31774 34.786 1.94683 35.0587 1.6741C35.3314 1.40137 35.7023 1.26501 36.1714 1.26501H41.6205Z" fill="white"/>
<path d="M42.772 6.20683C42.772 5.35592 42.9029 4.60319 43.1647 3.94865C43.4374 3.2941 43.8029 2.74865 44.2611 2.31228C44.7302 1.86501 45.2756 1.52683 45.8974 1.29774C46.5302 1.06865 47.212 0.954102 47.9429 0.954102C48.6738 0.954102 49.3502 1.06865 49.972 1.29774C50.6047 1.52683 51.1556 1.86501 51.6247 2.31228C52.0938 2.74865 52.4592 3.2941 52.7211 3.94865C52.9938 4.60319 53.1302 5.35592 53.1302 6.20683C53.1302 7.05774 52.9992 7.81592 52.7374 8.48137C52.4756 9.13592 52.1102 9.68683 51.6411 10.1341C51.1829 10.5705 50.6374 10.9032 50.0047 11.1323C49.372 11.3614 48.6847 11.4759 47.9429 11.4759C47.2011 11.4759 46.5138 11.3614 45.8811 11.1323C45.2483 10.8923 44.7029 10.5486 44.2447 10.1014C43.7865 9.6541 43.4265 9.10319 43.1647 8.44865C42.9029 7.7941 42.772 7.04683 42.772 6.20683ZM45.7174 6.20683C45.7174 7.19956 45.9192 7.94137 46.3229 8.43228C46.7265 8.92319 47.2665 9.16865 47.9429 9.16865C48.6302 9.16865 49.1756 8.92319 49.5792 8.43228C49.9829 7.94137 50.1847 7.19956 50.1847 6.20683C50.1847 5.22501 49.9829 4.48865 49.5792 3.99774C49.1865 3.50683 48.6465 3.26137 47.9592 3.26137C47.2829 3.26137 46.7374 3.50683 46.3229 3.99774C45.9192 4.47774 45.7174 5.2141 45.7174 6.20683Z" fill="white"/>
<path d="M57.6158 7.9741V11.1159C57.4958 11.1486 57.3049 11.1814 57.0431 11.2141C56.7922 11.2468 56.5413 11.2632 56.2904 11.2632C56.0395 11.2632 55.8158 11.2414 55.6195 11.1977C55.434 11.165 55.2758 11.0996 55.1449 11.0014C55.0249 10.9032 54.9322 10.7668 54.8667 10.5923C54.8013 10.4177 54.7686 10.1886 54.7686 9.90501V2.19774C54.7686 1.96865 54.8286 1.7941 54.9486 1.6741C55.0795 1.54319 55.254 1.43956 55.4722 1.36319C55.8431 1.23228 56.274 1.13956 56.7649 1.08501C57.2558 1.01956 57.7795 0.986828 58.3358 0.986828C59.8413 0.986828 60.9758 1.30319 61.7395 1.93592C62.5031 2.56865 62.8849 3.42501 62.8849 4.50501C62.8849 5.18137 62.7104 5.75956 62.3613 6.23956C62.0122 6.71956 61.5977 7.09047 61.1177 7.35228C61.5104 7.88683 61.8977 8.38865 62.2795 8.85774C62.6613 9.32683 62.9613 9.75228 63.1795 10.1341C63.0704 10.5159 62.8686 10.8105 62.574 11.0177C62.2904 11.2141 61.9686 11.3123 61.6086 11.3123C61.3686 11.3123 61.1613 11.285 60.9867 11.2305C60.8122 11.1759 60.6595 11.0996 60.5286 11.0014C60.3977 10.9032 60.2777 10.7832 60.1686 10.6414C60.0595 10.4996 59.9558 10.3468 59.8577 10.1832L58.4831 7.9741H57.6158ZM58.6467 5.79774C59.0613 5.79774 59.3886 5.6941 59.6286 5.48683C59.8686 5.26865 59.9886 4.95228 59.9886 4.53774C59.9886 4.12319 59.8522 3.81228 59.5795 3.60501C59.3177 3.38683 58.8977 3.27774 58.3195 3.27774C58.1558 3.27774 58.0249 3.28319 57.9267 3.2941C57.8286 3.30501 57.7195 3.32137 57.5995 3.34319V5.79774H58.6467Z" fill="white"/>
<path d="M73.7238 10.8377C73.5711 10.9905 73.3474 11.105 73.0529 11.1814C72.7692 11.2686 72.4256 11.3123 72.022 11.3123C71.6183 11.3123 71.2365 11.2523 70.8765 11.1323C70.5165 11.0123 70.222 10.7232 69.9929 10.265L68.3729 6.95956C68.2092 6.62137 68.062 6.30501 67.9311 6.01047C67.8002 5.70501 67.6583 5.35592 67.5056 4.96319L67.4074 4.97956C67.4511 5.56865 67.4729 6.16865 67.4729 6.77956C67.4838 7.39047 67.4892 7.99047 67.4892 8.57956V11.1159C67.3692 11.1486 67.1838 11.1814 66.9329 11.2141C66.6929 11.2468 66.4529 11.2632 66.2129 11.2632C65.9729 11.2632 65.7602 11.2468 65.5747 11.2141C65.3892 11.1814 65.2365 11.1159 65.1165 11.0177C64.9965 10.9196 64.9038 10.7886 64.8383 10.625C64.7729 10.4505 64.7402 10.2268 64.7402 9.9541V1.77228C64.8929 1.5541 65.1274 1.39046 65.4438 1.28137C65.7602 1.17228 66.0983 1.11774 66.4583 1.11774C66.862 1.11774 67.2438 1.18319 67.6038 1.3141C67.9747 1.4341 68.2692 1.71774 68.4874 2.16501L70.1238 5.47047C70.2874 5.80865 70.4347 6.13046 70.5656 6.43592C70.6965 6.73047 70.8383 7.0741 70.9911 7.46683L71.0729 7.45047C71.0292 6.86137 71.002 6.27228 70.9911 5.68319C70.9802 5.0941 70.9747 4.50501 70.9747 3.91592V1.26501C71.0947 1.23228 71.2747 1.19956 71.5147 1.16683C71.7656 1.1341 72.0111 1.11774 72.2511 1.11774C72.7311 1.11774 73.0965 1.20501 73.3474 1.37956C73.5983 1.54319 73.7238 1.89228 73.7238 2.42683V10.8377Z" fill="white"/>
<path d="M78.71 11.1159C78.59 11.1486 78.3991 11.1814 78.1372 11.2141C77.8863 11.2468 77.6354 11.2632 77.3845 11.2632C77.1336 11.2632 76.91 11.2414 76.7136 11.1977C76.5282 11.165 76.37 11.0996 76.2391 11.0014C76.1082 10.9032 76.01 10.7668 75.9445 10.5923C75.8791 10.4177 75.8463 10.1886 75.8463 9.90501V1.26501C75.9663 1.24319 76.1572 1.21592 76.4191 1.18319C76.6809 1.13956 76.9318 1.11774 77.1718 1.11774C77.4227 1.11774 77.6409 1.13956 77.8263 1.18319C78.0227 1.21592 78.1863 1.28137 78.3172 1.37956C78.4482 1.47774 78.5463 1.6141 78.6118 1.78865C78.6772 1.96319 78.71 2.19228 78.71 2.47592V11.1159Z" fill="white"/>
<path d="M82.943 1.55956C83.1285 1.45046 83.4067 1.34683 83.7776 1.24865C84.1594 1.15046 84.5412 1.10137 84.923 1.10137C85.4685 1.10137 85.9485 1.18319 86.363 1.34683C86.7885 1.49956 87.0612 1.74501 87.1812 2.08319C87.3776 2.65046 87.5903 3.31046 87.8194 4.06319C88.0485 4.81592 88.2776 5.59592 88.5067 6.40319C88.7358 7.19956 88.9594 7.99047 89.1776 8.77592C89.3958 9.55047 89.5867 10.2377 89.7503 10.8377C89.6194 10.9905 89.423 11.1105 89.1612 11.1977C88.8994 11.2959 88.5885 11.345 88.2285 11.345C87.9667 11.345 87.743 11.3232 87.5576 11.2796C87.383 11.2359 87.2358 11.1705 87.1158 11.0832C87.0067 10.9959 86.914 10.8814 86.8376 10.7396C86.7721 10.5977 86.7121 10.4341 86.6576 10.2486L86.363 9.11956H83.4012C83.3139 9.44683 83.2267 9.78501 83.1394 10.1341C83.0521 10.4832 82.9649 10.8214 82.8776 11.1486C82.7249 11.2032 82.5612 11.2468 82.3867 11.2796C82.223 11.3232 82.0212 11.345 81.7812 11.345C81.2249 11.345 80.8103 11.2523 80.5376 11.0668C80.2758 10.8705 80.1449 10.6032 80.1449 10.265C80.1449 10.1123 80.1667 9.95956 80.2103 9.80683C80.2539 9.6541 80.303 9.4741 80.3576 9.26683C80.4339 8.97228 80.5376 8.60683 80.6685 8.17047C80.8103 7.7341 80.963 7.26501 81.1267 6.76319C81.2903 6.25047 81.4649 5.72683 81.6503 5.19228C81.8358 4.65774 82.0103 4.15592 82.1739 3.68683C82.3376 3.20683 82.4849 2.78137 82.6158 2.41047C82.7576 2.03956 82.8667 1.75592 82.943 1.55956ZM84.9067 3.67047C84.7539 4.12865 84.5794 4.64137 84.383 5.20865C84.1976 5.76501 84.0285 6.33228 83.8758 6.91047H85.9049C85.7521 6.32137 85.594 5.74865 85.4303 5.19228C85.2776 4.62501 85.1358 4.11774 85.0049 3.67047H84.9067Z" fill="white"/>
</svg>
