<svg width="122" height="13" viewBox="0 0 122 13" fill="none" xmlns="http://www.w3.org/2000/svg">
<path d="M8.48361 0.012006C5.63063 0.012006 0.551837 0.360157 0.551837 3.07334C0.551837 7.02306 9.09847 7.05907 9.09847 9.31605C9.09847 10.0004 8.38523 10.6126 6.78658 10.6126C4.54846 10.6126 3.28184 10.4806 1.21589 10.1324C0.342782 9.98835 0.0476466 11.6691 0.773188 11.8492C2.12589 12.1973 4.24103 12.4974 8.0532 12.4974C10.9062 12.4974 15.8743 11.9932 15.8743 9.26803C15.8743 5.31831 7.38914 5.2943 7.38914 3.19339C7.38914 2.50909 8.10239 1.89682 9.70104 1.89682H15.0996C16.194 1.89682 16.194 0.012006 15.0996 0.012006H8.48361V0.012006ZM28.7127 0.012006C25.6138 0.012006 20.3874 0.192083 20.3874 4.3699V8.18756C20.3874 12.3774 25.6138 12.5455 28.7127 12.5455C31.9961 12.5455 33.7546 12.2453 35.1073 11.8972C35.8451 11.7171 35.5377 10.0244 34.6646 10.1804C32.5986 10.5286 31.3443 10.6606 29.0939 10.6606C27.0034 10.6606 26.45 10.1924 26.45 8.94389V7.49126C26.45 6.99904 26.573 6.903 27.114 6.903H31.3566C32.1805 6.903 32.1805 5.2943 31.3566 5.2943H27.114C26.573 5.2943 26.45 5.19826 26.45 4.70605V3.62558C26.45 2.36503 27.0034 1.90883 29.0939 1.90883H34.4432C35.5377 1.90883 35.5377 0.0240082 34.4432 0.0240082H28.7127V0.012006ZM47.835 0.012006C44.7361 0.012006 39.5097 0.192083 39.5097 4.3699V8.35564C39.5097 12.2453 44.5147 12.4494 47.6137 12.4494C50.2453 12.4494 55.9881 12.3174 55.9881 8.67978V7.49126C55.9881 6.00261 54.9921 5.60644 53.0122 5.60644H48.6589C48.0687 5.60644 48.0687 7.21514 48.6589 7.21514H49.987C50.5281 7.21514 50.5896 7.32318 50.5896 7.80339V8.82384C50.5896 10.0844 49.3968 10.7567 47.6137 10.7567C45.8306 10.7567 45.1911 10.0724 45.1911 8.82384V3.60157C45.1911 2.34102 46.1257 1.88482 48.2162 1.88482H53.5656C54.66 1.88482 54.66 0 53.5656 0H47.835V0.012006ZM59.3453 0.012006C58.5952 0.012006 58.6075 0.312134 58.7919 0.9244L61.9892 10.3965C62.4196 11.561 63.3542 12.3294 65.1865 12.3294C67.0188 12.3294 67.8919 11.549 68.3223 10.5046C68.3223 10.5046 69.589 6.80696 69.8103 6.14667C69.9579 5.69047 70.3268 5.69047 70.4744 6.14667C70.6588 6.71092 71.9132 10.3965 71.9132 10.3965C72.528 11.6211 73.1798 12.3294 75.049 12.3294C77.2502 12.3294 78.2094 11.453 78.5783 10.3965C78.812 9.73624 80.509 4.08177 81.5543 0.816354C81.7633 0.180077 81.7018 0.012006 81.1116 0.012006H79.1809C78.5783 2.00487 76.7214 7.99548 76.6476 8.24759C76.5124 8.70378 76.168 8.69178 75.9836 8.24759C75.8606 7.93545 73.7824 2.38904 73.4503 1.52466C73.106 0.660285 72.1591 0.0240082 71.0769 0.0240082C70.1055 0.0240082 69.1955 0.540233 68.8757 1.52466C68.556 2.50909 66.8098 7.98347 66.7237 8.24759C66.5884 8.70378 66.2072 8.70378 66.0596 8.24759C65.9613 7.97147 64.0675 1.92084 63.4649 0.012006H59.3453V0.012006ZM93.2367 0.012006C90.2362 0.012006 85.4648 -0.0120046 85.4648 3.61357V11.1408C85.4648 11.8972 86.0428 12.3294 87.9981 12.3294C89.9533 12.3294 90.5313 11.8011 90.5313 11.1408V7.69535C90.5313 7.20313 90.6543 7.10709 91.1954 7.10709H95.1674C95.7085 7.10709 95.8314 7.21514 95.8314 7.69535V11.1408C95.8314 11.8011 96.4094 12.3294 98.3647 12.3294C100.32 12.3294 100.898 11.9092 100.898 11.1408V3.61357C100.898 -0.0120046 96.2373 0.012006 93.2367 0.012006ZM104.206 0.012006C103.714 0.012006 103.505 0.37216 103.874 0.816354C105.116 2.32901 108.03 5.89456 108.227 6.14667C108.473 6.4468 108.83 6.86699 108.83 7.33519V11.1529C108.83 11.8131 109.469 12.3414 111.424 12.3414C113.38 12.3414 114.068 11.9212 114.068 11.1529V7.01105C114.068 6.51884 114.4 6.25472 114.671 5.93058C114.868 5.67847 117.622 2.37703 118.914 0.816354C119.282 0.360155 119.086 0.012006 118.581 0.012006H116.27C116.27 0.012006 113.306 3.80565 113.072 4.10578C112.839 4.40591 112.371 4.39391 112.138 4.10578C111.904 3.81766 109.051 0.012006 109.051 0.012006H104.206V0.012006ZM120.844 0.012006C120.205 0.012006 119.688 0.52823 119.688 1.1405C119.688 1.75276 120.205 2.26899 120.844 2.26899C121.471 2.26899 122 1.75276 122 1.1405C122 0.516225 121.484 0.012006 120.844 0.012006ZM120.844 0.276119C121.311 0.276119 121.73 0.684298 121.73 1.1405C121.73 1.59669 121.311 1.94484 120.844 1.94484C120.377 1.94484 120.02 1.59669 120.02 1.1405C120.02 0.684298 120.377 0.276119 120.844 0.276119ZM120.352 0.708307C120.315 0.708307 120.303 0.720312 120.303 0.756328V1.45263C120.303 1.50065 120.34 1.50065 120.463 1.50065C120.598 1.50065 120.623 1.48865 120.623 1.45263V0.864374C120.623 0.828358 120.635 0.816354 120.672 0.816354H120.832C120.943 0.816354 120.992 0.876379 120.992 0.9244C120.992 1.00844 120.856 1.03245 120.721 1.03245H120.672C120.611 1.03245 120.623 1.21253 120.672 1.24854C120.807 1.35659 120.93 1.46464 121.004 1.51266C121.029 1.53667 121.078 1.51266 121.115 1.51266H121.447C121.484 1.51266 121.484 1.48865 121.447 1.46464L121.004 1.1405C121.115 1.1405 121.447 1.1525 121.447 0.9244C121.447 0.768332 121.238 0.708307 120.955 0.708307H120.352V0.708307ZM93.2367 1.62071C95.2658 1.62071 95.8314 2.14893 95.8314 3.39748V4.89813C95.8314 5.42636 95.7208 5.48638 95.2289 5.48638H91.2077C90.6666 5.48638 90.5436 5.37834 90.5436 4.89813V3.39748C90.5436 2.14893 91.2077 1.62071 93.2367 1.62071Z" fill="white"/>
</svg>
