<svg width="111" height="14" viewBox="0 0 111 14" fill="none" xmlns="http://www.w3.org/2000/svg">
<path d="M7.60063 3.56641C6.55787 3.56641 5.75887 3.88465 5.20363 4.52114C4.6484 5.15763 4.37078 6.0582 4.37078 7.22284C4.37078 8.40102 4.67548 9.30835 5.28489 9.94484C5.90784 10.5813 6.74069 10.8996 7.78345 10.8996C8.33868 10.8996 8.80589 10.8251 9.18508 10.6761C9.5778 10.5272 9.95022 10.3579 10.3023 10.1683C10.5325 10.3579 10.7086 10.5881 10.8305 10.8589C10.9659 11.1163 11.0336 11.421 11.0336 11.7731C11.0336 12.3283 10.7221 12.8023 10.0992 13.195C9.48978 13.5742 8.55536 13.7638 7.29592 13.7638C6.38859 13.7638 5.53542 13.6351 4.73642 13.3778C3.93743 13.1205 3.24 12.7278 2.64414 12.1996C2.04827 11.6579 1.57429 10.9808 1.22219 10.1683C0.883634 9.34221 0.714355 8.36039 0.714355 7.22284C0.714355 6.16653 0.876863 5.23889 1.20188 4.43989C1.54044 3.62735 1.9941 2.94346 2.56288 2.38823C3.1452 1.83299 3.82232 1.41318 4.59423 1.12879C5.36614 0.844404 6.19222 0.702209 7.07247 0.702209C8.31837 0.702209 9.27987 0.905344 9.95699 1.31161C10.6476 1.71788 10.993 2.23926 10.993 2.87575C10.993 3.22785 10.905 3.53255 10.7289 3.78986C10.5529 4.04716 10.3497 4.2503 10.1195 4.39926C9.7674 4.16904 9.38821 3.97268 8.98194 3.81017C8.58921 3.64766 8.12878 3.56641 7.60063 3.56641Z" fill="#323941"/>
<path d="M15.8466 1.45381C16.0768 1.31838 16.4222 1.18973 16.8826 1.06785C17.3566 0.94597 17.8306 0.88503 18.3046 0.88503C18.9817 0.88503 19.5775 0.986597 20.0921 1.18973C20.6203 1.37933 20.9589 1.68403 21.1078 2.10384C21.3516 2.80804 21.6157 3.62735 21.9 4.56177C22.1844 5.49619 22.4688 6.46447 22.7532 7.4666C23.0376 8.45519 23.3152 9.43701 23.5861 10.4121C23.8569 11.3736 24.0939 12.2267 24.297 12.9716C24.1345 13.1611 23.8908 13.3101 23.5657 13.4184C23.2407 13.5403 22.8548 13.6013 22.4079 13.6013C22.0829 13.6013 21.8052 13.5742 21.575 13.52C21.3584 13.4658 21.1755 13.3846 21.0266 13.2763C20.8911 13.1679 20.776 13.0257 20.6812 12.8497C20.6 12.6736 20.5255 12.4705 20.4578 12.2403L20.0921 10.8386H16.4154C16.3071 11.2449 16.1987 11.6647 16.0904 12.0981C15.9821 12.5314 15.8737 12.9512 15.7654 13.3575C15.5758 13.4252 15.3726 13.4794 15.156 13.52C14.9528 13.5742 14.7023 13.6013 14.4044 13.6013C13.7137 13.6013 13.1991 13.4862 12.8605 13.2559C12.5355 13.0122 12.373 12.6804 12.373 12.2606C12.373 12.071 12.4001 11.8814 12.4543 11.6918C12.5084 11.5022 12.5694 11.2788 12.6371 11.0215C12.7319 10.6558 12.8605 10.2021 13.0231 9.66045C13.1991 9.11876 13.3887 8.53644 13.5918 7.91349C13.795 7.27701 14.0116 6.62697 14.2419 5.9634C14.4721 5.29983 14.6888 4.67688 14.8919 4.09456C15.095 3.4987 15.2779 2.97055 15.4404 2.51011C15.6164 2.04967 15.7518 1.69757 15.8466 1.45381ZM18.2842 4.07425C18.0947 4.64302 17.878 5.27951 17.6342 5.98371C17.404 6.67437 17.1941 7.37857 17.0045 8.09632H19.5234C19.3338 7.36503 19.1374 6.65406 18.9343 5.9634C18.7447 5.2592 18.5686 4.62948 18.4061 4.07425H18.2842Z" fill="#323941"/>
<path d="M27.8509 13.4591C27.2686 13.4591 26.8082 13.2898 26.4696 12.9512C26.1311 12.6127 25.9618 12.1522 25.9618 11.5699V1.06785C26.1108 1.04077 26.3477 1.00691 26.6728 0.966284C26.9978 0.912114 27.3092 0.88503 27.6072 0.88503C27.9187 0.88503 28.1895 0.912114 28.4197 0.966284C28.6635 1.00691 28.8666 1.08817 29.0291 1.21005C29.1916 1.33193 29.3135 1.50121 29.3948 1.71788C29.476 1.93456 29.5166 2.21895 29.5166 2.57105V10.5949H34.1684C34.2632 10.7438 34.3513 10.947 34.4325 11.2043C34.5138 11.448 34.5544 11.7053 34.5544 11.9762C34.5544 12.5179 34.4393 12.9038 34.2091 13.1341C33.9788 13.3507 33.6741 13.4591 33.295 13.4591H27.8509Z" fill="#323941"/>
<path d="M39.9313 13.3169C39.7823 13.3575 39.5453 13.3981 39.2203 13.4388C38.9088 13.4794 38.5974 13.4997 38.2859 13.4997C37.9744 13.4997 37.6968 13.4726 37.453 13.4184C37.2228 13.3778 37.0264 13.2966 36.8639 13.1747C36.7014 13.0528 36.5796 12.8835 36.4983 12.6668C36.417 12.4502 36.3764 12.1658 36.3764 11.8137V1.08817C36.5254 1.06108 36.7624 1.02722 37.0874 0.986598C37.4124 0.932429 37.7239 0.905344 38.0218 0.905344C38.3333 0.905344 38.6041 0.932429 38.8343 0.986598C39.0781 1.02722 39.2812 1.10848 39.4437 1.23036C39.6063 1.35224 39.7281 1.52152 39.8094 1.7382C39.8906 1.95487 39.9313 2.23926 39.9313 2.59136V13.3169Z" fill="#323941"/>
<path d="M51.2192 1.08817C51.314 1.23713 51.3953 1.44027 51.463 1.69757C51.5442 1.94133 51.5849 2.19864 51.5849 2.46948C51.5849 2.99763 51.4698 3.37682 51.2395 3.60704C51.0229 3.82371 50.7249 3.93205 50.3457 3.93205H46.0799V6.22748H50.5286C50.6369 6.37644 50.7249 6.5728 50.7926 6.81657C50.8739 7.06033 50.9145 7.31763 50.9145 7.58848C50.9145 8.10309 50.7994 8.4755 50.5692 8.70572C50.3525 8.9224 50.0546 9.03074 49.6754 9.03074H46.1205V13.3169C45.9716 13.3575 45.7346 13.3981 45.4096 13.4388C45.0981 13.4794 44.7866 13.4997 44.4751 13.4997C44.1637 13.4997 43.8861 13.4726 43.6423 13.4184C43.4121 13.3778 43.2157 13.2966 43.0532 13.1747C42.8907 13.0528 42.7688 12.8835 42.6876 12.6668C42.6063 12.4502 42.5657 12.1658 42.5657 11.8137V2.97732C42.5657 2.395 42.735 1.93456 43.0735 1.596C43.4121 1.25744 43.8725 1.08817 44.4548 1.08817H51.2192Z" fill="#323941"/>
<path d="M52.6486 7.22284C52.6486 6.16653 52.8111 5.23211 53.1361 4.41958C53.4747 3.60704 53.9284 2.92992 54.4972 2.38823C55.0795 1.83299 55.7566 1.41318 56.5285 1.12879C57.314 0.844404 58.1603 0.702209 59.0677 0.702209C59.975 0.702209 60.8146 0.844404 61.5866 1.12879C62.372 1.41318 63.0559 1.83299 63.6382 2.38823C64.2205 2.92992 64.6742 3.60704 64.9992 4.41958C65.3378 5.23211 65.507 6.16653 65.507 7.22284C65.507 8.27914 65.3446 9.22033 65.0195 10.0464C64.6945 10.8589 64.2408 11.5428 63.6585 12.0981C63.0898 12.6398 62.4126 13.0528 61.6272 13.3372C60.8417 13.6216 59.9886 13.7638 59.0677 13.7638C58.1468 13.7638 57.2936 13.6216 56.5082 13.3372C55.7227 13.0393 55.0456 12.6127 54.4768 12.0574C53.9081 11.5022 53.4612 10.8183 53.1361 10.0058C52.8111 9.19324 52.6486 8.26559 52.6486 7.22284ZM56.305 7.22284C56.305 8.45519 56.5556 9.37607 57.0566 9.98547C57.5577 10.5949 58.2281 10.8996 59.0677 10.8996C59.9208 10.8996 60.598 10.5949 61.099 9.98547C61.6001 9.37607 61.8506 8.45519 61.8506 7.22284C61.8506 6.00403 61.6001 5.08992 61.099 4.48052C60.6115 3.87111 59.9412 3.56641 59.088 3.56641C58.2484 3.56641 57.5713 3.87111 57.0566 4.48052C56.5556 5.07638 56.305 5.99048 56.305 7.22284Z" fill="#323941"/>
<path d="M71.0755 9.41669V13.3169C70.9265 13.3575 70.6895 13.3981 70.3645 13.4388C70.053 13.4794 69.7416 13.4997 69.4301 13.4997C69.1186 13.4997 68.841 13.4726 68.5972 13.4184C68.367 13.3778 68.1707 13.2966 68.0082 13.1747C67.8592 13.0528 67.7441 12.8835 67.6628 12.6668C67.5816 12.4502 67.5409 12.1658 67.5409 11.8137V2.24603C67.5409 1.96164 67.6154 1.74497 67.7644 1.596C67.9269 1.43349 68.1436 1.30484 68.4144 1.21005C68.8749 1.04754 69.4098 0.932428 70.0192 0.864716C70.6286 0.783463 71.2786 0.742836 71.9693 0.742836C73.8381 0.742836 75.2465 1.13556 76.1945 1.92102C77.1424 2.70647 77.6164 3.76954 77.6164 5.11023C77.6164 5.94986 77.3997 6.6676 76.9664 7.26346C76.533 7.85932 76.0184 8.31976 75.4226 8.64478C75.9101 9.30835 76.3908 9.9313 76.8648 10.5136C77.3388 11.0959 77.7112 11.6241 77.9821 12.0981C77.8466 12.5721 77.5961 12.9377 77.2305 13.195C76.8784 13.4388 76.4789 13.5606 76.032 13.5606C75.734 13.5606 75.4767 13.5268 75.2601 13.4591C75.0434 13.3914 74.8538 13.2966 74.6913 13.1747C74.5288 13.0528 74.3798 12.9038 74.2444 12.7278C74.109 12.5517 73.9803 12.3621 73.8584 12.159L72.1521 9.41669H71.0755ZM72.3552 6.715C72.8698 6.715 73.2761 6.58635 73.574 6.32904C73.872 6.0582 74.0209 5.66547 74.0209 5.15086C74.0209 4.63625 73.8517 4.2503 73.5131 3.99299C73.1881 3.72215 72.6667 3.58672 71.949 3.58672C71.7458 3.58672 71.5833 3.59349 71.4614 3.60704C71.3396 3.62058 71.2041 3.64089 71.0552 3.66798V6.715H72.3552Z" fill="#323941"/>
<path d="M91.0716 12.9716C90.882 13.1611 90.6044 13.3033 90.2387 13.3981C89.8866 13.5065 89.46 13.5606 88.959 13.5606C88.4579 13.5606 87.9839 13.4862 87.537 13.3372C87.0901 13.1882 86.7245 12.8294 86.4401 12.2606L84.4291 8.15726C84.2259 7.73744 84.0431 7.34472 83.8806 6.97907C83.7181 6.59989 83.542 6.16654 83.3524 5.67901L83.2306 5.69933C83.2847 6.43061 83.3118 7.17544 83.3118 7.93381C83.3254 8.69218 83.3321 9.43701 83.3321 10.1683V13.3169C83.1832 13.3575 82.9529 13.3981 82.6415 13.4388C82.3435 13.4794 82.0456 13.4997 81.7477 13.4997C81.4497 13.4997 81.1857 13.4794 80.9555 13.4388C80.7252 13.3981 80.5356 13.3169 80.3867 13.195C80.2377 13.0731 80.1226 12.9106 80.0414 12.7075C79.9601 12.4908 79.9195 12.2132 79.9195 11.8746V1.71788C80.1091 1.44704 80.4002 1.2439 80.7929 1.10848C81.1857 0.973056 81.6055 0.905344 82.0524 0.905344C82.5535 0.905344 83.0274 0.986598 83.4743 1.14911C83.9348 1.29807 84.3004 1.65017 84.5713 2.20541L86.6026 6.30873C86.8057 6.72854 86.9886 7.12804 87.1511 7.50722C87.3136 7.87287 87.4896 8.29945 87.6792 8.78697L87.7808 8.76666C87.7266 8.03538 87.6928 7.30409 87.6792 6.5728C87.6657 5.84152 87.6589 5.11023 87.6589 4.37895V1.08817C87.8079 1.04754 88.0313 1.00691 88.3293 0.966284C88.6407 0.925657 88.9454 0.905344 89.2434 0.905344C89.8392 0.905344 90.2929 1.01368 90.6044 1.23036C90.9158 1.43349 91.0716 1.86685 91.0716 2.53042V12.9716Z" fill="#323941"/>
<path d="M97.2613 13.3169C97.1123 13.3575 96.8754 13.3981 96.5503 13.4388C96.2389 13.4794 95.9274 13.4997 95.6159 13.4997C95.3044 13.4997 95.0268 13.4726 94.7831 13.4184C94.5528 13.3778 94.3565 13.2966 94.194 13.1747C94.0315 13.0528 93.9096 12.8835 93.8283 12.6668C93.7471 12.4502 93.7064 12.1658 93.7064 11.8137V1.08817C93.8554 1.06108 94.0924 1.02722 94.4174 0.986598C94.7424 0.932429 95.0539 0.905344 95.3518 0.905344C95.6633 0.905344 95.9342 0.932429 96.1644 0.986598C96.4081 1.02722 96.6113 1.10848 96.7738 1.23036C96.9363 1.35224 97.0582 1.52152 97.1394 1.7382C97.2207 1.95487 97.2613 2.23926 97.2613 2.59136V13.3169Z" fill="#323941"/>
<path d="M102.516 1.45381C102.746 1.31838 103.092 1.18973 103.552 1.06785C104.026 0.94597 104.5 0.88503 104.974 0.88503C105.651 0.88503 106.247 0.986597 106.762 1.18973C107.29 1.37933 107.628 1.68403 107.777 2.10384C108.021 2.80804 108.285 3.62735 108.57 4.56177C108.854 5.49619 109.138 6.46447 109.423 7.4666C109.707 8.45519 109.985 9.43701 110.256 10.4121C110.526 11.3736 110.763 12.2267 110.967 12.9716C110.804 13.1611 110.56 13.3101 110.235 13.4184C109.91 13.5403 109.524 13.6013 109.077 13.6013C108.752 13.6013 108.475 13.5742 108.245 13.52C108.028 13.4658 107.845 13.3846 107.696 13.2763C107.561 13.1679 107.446 13.0257 107.351 12.8497C107.27 12.6736 107.195 12.4705 107.127 12.2403L106.762 10.8386H103.085C102.977 11.2449 102.868 11.6647 102.76 12.0981C102.652 12.5314 102.543 12.9512 102.435 13.3575C102.245 13.4252 102.042 13.4794 101.825 13.52C101.622 13.5742 101.372 13.6013 101.074 13.6013C100.383 13.6013 99.8686 13.4862 99.5301 13.2559C99.2051 13.0122 99.0425 12.6804 99.0425 12.2606C99.0425 12.071 99.0696 11.8814 99.1238 11.6918C99.178 11.5022 99.2389 11.2788 99.3066 11.0215C99.4014 10.6558 99.5301 10.2021 99.6926 9.66045C99.8686 9.11876 100.058 8.53644 100.261 7.91349C100.464 7.27701 100.681 6.62697 100.911 5.9634C101.142 5.29983 101.358 4.67688 101.561 4.09456C101.765 3.4987 101.947 2.97055 102.11 2.51011C102.286 2.04967 102.421 1.69757 102.516 1.45381ZM104.954 4.07425C104.764 4.64302 104.548 5.27951 104.304 5.98371C104.074 6.67437 103.864 7.37857 103.674 8.09632H106.193C106.003 7.36503 105.807 6.65406 105.604 5.9634C105.414 5.2592 105.238 4.62948 105.076 4.07425H104.954Z" fill="#323941"/>
</svg>
