<svg width="8" height="7" viewBox="0 0 8 7" fill="none" xmlns="http://www.w3.org/2000/svg">
<path d="M1.67032 6.05757V6.03742V5.25153V4.19225C1.67032 4.14792 1.67032 4.1412 1.61658 4.1412H0.884426C0.844124 4.1412 0.82666 4.1412 0.82666 4.08747V3.44666H1.60919C1.65353 3.44666 1.66965 3.44666 1.66965 3.3889V2.75481C1.66965 2.71451 1.66965 2.70443 1.61591 2.70443H0.883755C0.843453 2.70443 0.82666 2.70443 0.82666 2.6507V2.05624C0.82666 2.01929 0.82666 2.00922 0.880396 2.00922H1.60584C1.65689 2.00922 1.67032 2.00922 1.67032 1.94541V0.126435C1.67032 0.0726991 1.67032 0.0592651 1.73749 0.0592651H4.2678C4.45128 0.0660446 4.63403 0.0862498 4.81456 0.119719C5.18638 0.188774 5.54355 0.321238 5.87048 0.511321C6.08681 0.638814 6.2863 0.792942 6.46427 0.970094C6.5974 1.10882 6.71809 1.25896 6.82497 1.41879C6.93133 1.58084 7.01963 1.75406 7.08828 1.93533C7.09237 1.958 7.10526 1.97813 7.12413 1.99134C7.143 2.00455 7.16633 2.00977 7.18903 2.00586H7.79357C7.87081 2.00586 7.87081 2.00586 7.87417 2.07975V2.63323C7.87417 2.68697 7.85402 2.7004 7.80028 2.7004H7.33479C7.28777 2.7004 7.27434 2.7004 7.27703 2.76153C7.29562 2.9671 7.29562 3.17392 7.27703 3.37949C7.27703 3.43659 7.27703 3.4433 7.34151 3.4433H7.87417C7.89768 3.47353 7.87417 3.50376 7.87417 3.53398C7.87763 3.57332 7.87763 3.61287 7.87417 3.6522V4.0606C7.87417 4.11769 7.85738 4.13449 7.807 4.13449H7.16888C7.14747 4.13066 7.12541 4.13523 7.10728 4.14723C7.08914 4.15924 7.07632 4.17777 7.07149 4.19897C6.91947 4.5939 6.67673 4.94756 6.36284 5.23138C6.24814 5.33479 6.12771 5.43167 6.00213 5.52155C5.86712 5.5988 5.73547 5.68008 5.5971 5.74389C5.34235 5.8585 5.07527 5.94347 4.80113 5.99712C4.54047 6.04364 4.27595 6.06501 4.0112 6.06093H1.67032V6.05757ZM6.32925 4.14792C6.27213 4.1412 6.21442 4.1412 6.1573 4.14792H2.41591C2.36486 4.14792 2.34874 4.14792 2.34874 4.21509V5.38654C2.34874 5.44028 2.34874 5.45371 2.41591 5.45371H4.14286C4.22541 5.45992 4.30843 5.45426 4.38937 5.43692C4.63999 5.4188 4.88663 5.36426 5.12153 5.27504C5.20733 5.24536 5.28992 5.2071 5.36805 5.16085H5.39156C5.79625 4.95027 6.12521 4.61874 6.33261 4.21241C6.33261 4.21241 6.35612 4.15867 6.32925 4.14523V4.14792ZM6.32925 2.0025C6.33524 1.9874 6.33524 1.97058 6.32925 1.95548C6.29559 1.88094 6.25511 1.80966 6.20835 1.74255C6.13728 1.62863 6.0532 1.52336 5.9578 1.42887C5.91319 1.37171 5.86125 1.32067 5.80331 1.27706C5.51123 1.02849 5.16429 0.852838 4.79105 0.764553C4.60295 0.721101 4.41047 0.699464 4.21742 0.70007H2.40583C2.35478 0.70007 2.34807 0.720221 2.34807 0.764553V1.9622C2.34807 2.01258 2.34807 2.02601 2.41255 2.02601H6.30574C6.30574 2.02601 6.33933 2.01929 6.34605 1.99914L6.32925 2.0025ZM4.43975 3.44666H6.49113C6.53479 3.44666 6.55494 3.44666 6.5583 3.3889C6.57517 3.18011 6.57517 2.97031 6.5583 2.76153C6.5583 2.72122 6.53815 2.70443 6.49449 2.70443H2.41255C2.3615 2.70443 2.34807 2.72122 2.34807 2.76824V3.36606C2.34807 3.44331 2.34807 3.4433 2.42867 3.4433L4.43975 3.44666Z" fill="white"/>
</svg>
