<svg width="5" height="8" viewBox="0 0 5 8" fill="none" xmlns="http://www.w3.org/2000/svg">
<path d="M3.94844 3.67758C4.06465 3.44502 4.10236 3.18107 4.05591 2.92527C4.05223 2.74841 4.00999 2.57448 3.93215 2.41563C3.85431 2.25678 3.74274 2.11682 3.60523 2.00553C3.46772 1.89425 3.30759 1.81431 3.13599 1.7713C2.9644 1.72829 2.78549 1.72324 2.61175 1.75651L2.45726 0.701934C2.45642 0.693097 2.45384 0.684513 2.44966 0.676679C2.44548 0.668846 2.43979 0.661918 2.43292 0.656297C2.42605 0.650675 2.41814 0.646471 2.40963 0.643928C2.40112 0.641385 2.3922 0.640553 2.38337 0.641481L1.99378 0.701934C1.97703 0.706658 1.96276 0.717702 1.95399 0.732739C1.94522 0.747775 1.94263 0.765629 1.94676 0.782539L2.12812 1.84383L1.6445 1.93115L1.46314 0.896728C1.4623 0.88789 1.45972 0.879307 1.45554 0.871473C1.45136 0.86364 1.44567 0.856712 1.4388 0.851091C1.43193 0.845469 1.42401 0.841265 1.41551 0.838722C1.407 0.836179 1.39808 0.835347 1.38925 0.836275L1.02653 0.903445C1.01115 0.908101 0.997949 0.918116 0.989322 0.931672C0.980695 0.945229 0.977214 0.961429 0.97951 0.977333L1.16759 2.04534L0.146598 2.2267C0.129844 2.23142 0.115578 2.24247 0.106807 2.2575C0.0980353 2.27254 0.095444 2.2904 0.0995788 2.30731L0.166749 2.71704C0.167589 2.72588 0.170171 2.73447 0.174348 2.7423C0.178525 2.75013 0.184213 2.75706 0.191084 2.76268C0.197955 2.7683 0.205872 2.77251 0.214377 2.77505C0.222882 2.77759 0.231808 2.77842 0.240636 2.7775H0.30109C0.369957 2.77007 0.439615 2.77637 0.506032 2.79603C0.572449 2.8157 0.634307 2.84834 0.688028 2.89206C0.741748 2.93579 0.786265 2.98973 0.819003 3.05078C0.851741 3.11182 0.87205 3.17875 0.878754 3.24769L1.26834 5.40386C1.29738 5.53185 1.27857 5.66605 1.21546 5.78113C1.15236 5.89621 1.04931 5.98422 0.925773 6.02854C0.91271 6.03263 0.901208 6.04061 0.892805 6.05141C0.884402 6.06221 0.879499 6.07533 0.878754 6.08899V6.51888C0.870912 6.53827 0.870912 6.55995 0.878754 6.57934C0.887105 6.58348 0.896301 6.58564 0.905623 6.58564C0.914945 6.58564 0.92414 6.58348 0.932491 6.57934L1.94005 6.40469L2.12141 7.43912C2.12467 7.45574 2.1341 7.47052 2.14781 7.48048C2.16151 7.49045 2.17847 7.49487 2.19529 7.49285L2.55801 7.42568C2.57477 7.42096 2.58903 7.40992 2.5978 7.39488C2.60658 7.37984 2.60917 7.36199 2.60503 7.34508L2.45726 6.33752L2.93417 6.2502L3.11553 7.28463C3.11879 7.30125 3.12822 7.31603 3.14193 7.32599C3.15563 7.33596 3.17259 7.34037 3.18941 7.33836L3.55213 7.27791C3.56889 7.27319 3.58315 7.26214 3.59192 7.24711C3.6007 7.23207 3.60329 7.21421 3.59915 7.1973L3.41779 6.16288L3.65961 6.12258C3.83505 6.09592 4.00247 6.03097 4.14999 5.93233C4.29751 5.8337 4.42151 5.7038 4.51319 5.55186C4.60487 5.39992 4.66198 5.22966 4.68046 5.05317C4.69894 4.87668 4.67835 4.69828 4.62014 4.53064C4.58882 4.34266 4.51094 4.16551 4.39362 4.01534C4.2763 3.86516 4.12325 3.74674 3.94844 3.67086V3.67758ZM1.78555 2.75735L2.50428 2.62972C2.64095 2.6238 2.77513 2.66774 2.88182 2.75337C2.98852 2.83899 3.06048 2.96046 3.0843 3.09518C3.10812 3.22989 3.08219 3.36867 3.01132 3.4857C2.94046 3.60272 2.82949 3.69 2.69907 3.73132L1.98035 3.85894L1.78555 2.75735ZM3.23643 5.3434L2.2759 5.51133L2.0811 4.40974L3.04164 4.24181C3.17832 4.23589 3.31249 4.27983 3.41919 4.36545C3.52589 4.45108 3.59784 4.57255 3.62166 4.70726C3.64548 4.84198 3.61955 4.98076 3.54869 5.09778C3.47782 5.2148 3.36685 5.30209 3.23643 5.3434Z" fill="white"/>
</svg>
