<svg width="15" height="10" viewBox="0 0 15 10" fill="none" xmlns="http://www.w3.org/2000/svg">
<path fill-rule="evenodd" clip-rule="evenodd" d="M2.80963 0.358521H5.16059V8.08311C5.16059 8.52848 4.98367 8.9556 4.66875 9.27052C4.35383 9.58545 3.9267 9.76237 3.48133 9.76237H1.13037V2.03778C1.13037 1.59241 1.30729 1.16529 1.62221 0.850364C1.93714 0.535442 2.36426 0.358521 2.80963 0.358521Z" fill="#006EBC"/>
<path fill-rule="evenodd" clip-rule="evenodd" d="M7.51129 0.358521H9.86225V8.08311C9.86225 8.52848 9.68533 8.9556 9.37041 9.27052C9.05549 9.58545 8.62836 9.76237 8.18299 9.76237H5.83203V2.03778C5.83203 1.59241 6.00895 1.16529 6.32387 0.850364C6.6388 0.535442 7.06592 0.358521 7.51129 0.358521Z" fill="#F00036"/>
<path fill-rule="evenodd" clip-rule="evenodd" d="M12.2134 0.358521H14.5644V8.08311C14.5644 8.52848 14.3875 8.9556 14.0726 9.27052C13.7576 9.58545 13.3305 9.76237 12.8851 9.76237H10.5342V2.03778C10.5342 1.59241 10.7111 1.16529 11.026 0.850364C11.3409 0.535442 11.7681 0.358521 12.2134 0.358521V0.358521Z" fill="#2AB419"/>
<path d="M2.30895 6.7397C1.59694 6.7397 0.883592 6.5355 0.524902 6.07673L1.04883 5.62266C1.09451 6.3837 3.43002 6.45557 3.43002 5.49503V3.38118H4.64043V5.49503C4.64043 5.98403 4.25487 6.38303 3.58384 6.59125C3.27083 6.68798 2.66696 6.7397 2.30895 6.7397V6.7397ZM7.76049 6.7397C7.30776 6.7397 6.82817 6.66783 6.44059 6.49386C5.80382 6.20838 5.55932 5.68378 5.56738 5.01678C5.57544 4.33568 5.86024 3.81981 6.55344 3.56254C7.43942 3.23341 8.79894 3.38723 9.19055 3.7439V4.3968C8.80633 4.04684 7.87535 3.79361 7.22985 4.08782C6.89802 4.23962 6.7348 4.70377 6.7301 5.06044C6.72607 5.4366 6.89467 5.90141 7.22985 6.06598C7.86998 6.37967 8.83522 6.09285 9.19055 5.76976V6.44818C8.95008 6.61947 8.3489 6.7397 7.76049 6.7397V6.7397ZM13.5902 5.002C13.8387 4.84415 13.9811 4.62115 13.9811 4.32694C13.9811 4.03274 13.9032 3.86548 13.7474 3.69621C13.609 3.55717 13.3578 3.38118 12.9158 3.38118H10.534V6.7397H12.9158C13.3833 6.7397 13.6527 6.58521 13.7991 6.46094C13.9892 6.29302 14.0853 6.10494 14.0853 5.81611C14.0853 5.5266 13.9811 5.2062 13.5902 5.002V5.002ZM12.3099 4.81326H11.3507V3.84332H12.3549C12.9971 3.84332 12.989 4.81326 12.3099 4.81326V4.81326ZM12.5034 6.26212H11.3507V5.24583H12.5034C13.1657 5.24583 13.2308 6.26212 12.5034 6.26212Z" fill="white"/>
</svg>
