<?xml version="1.0" standalone="no"?>
<!DOCTYPE svg PUBLIC "-//W3C//DTD SVG 20010904//EN"
 "http://www.w3.org/TR/2001/REC-SVG-20010904/DTD/svg10.dtd">
<svg version="1.0" xmlns="http://www.w3.org/2000/svg"
 width="225.000000pt" height="225.000000pt" viewBox="0 0 225.000000 225.000000"
 preserveAspectRatio="xMidYMid meet">

<g transform="translate(0.000000,225.000000) scale(0.100000,-0.100000)"
fill="#000000" stroke="none">
<path d="M993 2239 c-601 -70 -1046 -623 -984 -1220 29 -270 144 -512 333
-695 439 -427 1127 -427 1566 0 450 437 450 1165 0 1602 -182 177 -410 285
-661 313 -107 12 -149 12 -254 0z m544 -693 c90 -90 113 -119 113 -141 0 -23
-25 -53 -125 -154 l-124 -126 124 -126 c100 -101 125 -131 125 -154 0 -22 -23
-51 -113 -141 -62 -63 -119 -114 -126 -114 -8 0 -74 59 -148 132 l-133 132
-128 -127 c-88 -87 -136 -127 -151 -127 -30 0 -251 215 -251 244 0 13 47 68
130 151 l130 130 -130 130 c-84 84 -130 137 -130 151 0 29 221 244 250 244 15
0 66 -43 151 -127 l129 -127 133 132 c74 73 140 132 148 132 7 0 64 -51 126
-114z"/>
</g>
</svg>
